<?xml version="1.0" standalone="no"?>
<!DOCTYPE svg PUBLIC "-//W3C//DTD SVG 20010904//EN"
 "http://www.w3.org/TR/2001/REC-SVG-20010904/DTD/svg10.dtd">
<svg version="1.0" xmlns="http://www.w3.org/2000/svg"
 width="612.000000pt" height="520.000000pt" viewBox="0 0 612.000000 520.000000"
 preserveAspectRatio="xMidYMid meet">

<g transform="translate(0.000000,520.000000) scale(0.100000,-0.100000)"
fill="#000000" stroke="none">
<path d="M0 2600 l0 -2600 3060 0 3060 0 0 2600 0 2600 -3060 0 -3060 0 0
-2600z m3515 1798 l2 -28 -432 0 -432 0 3 28 c1 15 2 28 3 30 1 1 193 1 428 0
l427 -3 1 -27z m-598 -1603 c57 -170 103 -313 103 -317 0 -5 -16 -8 -35 -8
-32 0 -35 3 -45 43 -6 23 -18 63 -26 90 l-16 47 -118 0 c-122 0 -132 3 -122
43 4 15 18 17 112 17 l108 0 -52 156 c-28 85 -56 156 -61 157 -5 1 -29 -53
-53 -120 -25 -67 -48 -121 -51 -118 -18 10 1 145 31 233 l33 93 44 -3 44 -3
104 -310z m259 -20 c-8 -166 0 -217 34 -235 32 -17 81 -11 127 15 l43 26 0
169 0 170 36 0 37 0 -7 -177 c-4 -98 -4 -186 -1 -195 5 -12 18 -18 36 -18 40
0 41 -36 2 -51 -39 -15 -75 6 -99 59 -1 2 -22 -11 -47 -29 -56 -39 -118 -48
-167 -22 -55 29 -60 47 -60 250 l0 182 28 4 c15 2 31 5 36 6 5 0 6 -64 2 -154z
m-79 -682 c-2 -38 -3 -7 -3 67 0 74 1 105 3 68 2 -38 2 -98 0 -135z m93 157
c0 -5 -4 -10 -10 -10 -5 0 -10 5 -10 10 0 6 5 10 10 10 6 0 10 -4 10 -10z
m-383 -64 c23 -20 28 -32 27 -66 -2 -55 -34 -90 -84 -90 -63 0 -101 64 -75
126 24 58 84 71 132 30z m119 11 c33 21 76 13 91 -17 15 -30 17 -150 3 -150
-6 0 -10 31 -10 73 0 98 -26 122 -84 76 -23 -18 -26 -27 -27 -87 -1 -87 -6
-69 -12 38 -3 61 -1 80 6 68 10 -14 13 -14 33 -1z m264 -77 c0 -53 -4 -90 -10
-90 -6 0 -10 37 -10 90 0 53 4 90 10 90 6 0 10 -37 10 -90z m98 73 c23 21 66
22 86 1 12 -12 16 -34 14 -92 l-1 -77 -7 78 c-6 78 -16 96 -50 97 -9 0 -26 -7
-38 -16 -19 -13 -22 -24 -22 -85 0 -39 -4 -69 -10 -69 -6 0 -10 31 -10 74 0
41 -3 83 -6 93 -5 17 -4 17 10 -1 15 -18 17 -18 34 -3z m200 -4 c-36 -26 -37
-59 -4 -59 14 0 28 -4 31 -10 4 -6 -8 -10 -28 -10 -31 0 -34 -2 -30 -25 6 -27
19 -41 48 -48 19 -4 19 -5 -2 -6 -35 -2 -66 46 -60 92 5 38 40 87 61 87 6 0
-1 -10 -16 -21z m27 -1396 l-1 -28 -429 0 -429 0 -1 28 -2 27 432 0 432 0 -2
-27z"/>
<path d="M2702 2177 c-47 -50 -17 -137 48 -137 66 0 95 86 45 135 -30 31 -65
32 -93 2z"/>
</g>
</svg>
